<svg width="20" height="19" viewBox="0 0 20 19" fill="none" xmlns="http://www.w3.org/2000/svg">
<path d="M5.9043 4.46875C5.54102 4.46875 5.20996 4.38086 4.91113 4.20508C4.6123 4.02344 4.37207 3.7832 4.19043 3.48438C4.01465 3.17969 3.92676 2.8457 3.92676 2.48242C3.92676 2.11914 4.01465 1.78809 4.19043 1.48926C4.37207 1.19043 4.6123 0.953125 4.91113 0.777344C5.20996 0.601562 5.54102 0.513672 5.9043 0.513672C6.26758 0.513672 6.59863 0.601562 6.89746 0.777344C7.19629 0.953125 7.43359 1.19043 7.60938 1.48926C7.78516 1.78809 7.87305 2.11914 7.87305 2.48242C7.87305 2.8457 7.78516 3.17969 7.60938 3.48438C7.43359 3.7832 7.19629 4.02344 6.89746 4.20508C6.59863 4.38086 6.26758 4.46875 5.9043 4.46875ZM19.0703 16.835C19.293 16.958 19.4424 17.1455 19.5186 17.3975C19.5947 17.6494 19.5771 17.8926 19.4658 18.127C19.3662 18.3203 19.1934 18.4668 18.9473 18.5664C18.707 18.666 18.4492 18.6426 18.1738 18.4961L12.3906 15.3848L9.26172 13.6182L4.12891 13.2402V17.6699C4.12891 17.9219 4.03516 18.1416 3.84766 18.3291C3.66602 18.5225 3.44629 18.6191 3.18848 18.6191C2.9248 18.6191 2.69922 18.5225 2.51172 18.3291C2.33008 18.1416 2.23926 17.9219 2.23926 17.6699V12.4756L0.560547 9.52246C0.455078 9.34082 0.414062 9.14453 0.4375 8.93359C0.460938 8.7168 0.548828 8.53223 0.701172 8.37988L3.10059 5.97168C3.31738 5.76074 3.5459 5.61133 3.78613 5.52344C4.03223 5.42969 4.31934 5.38281 4.64746 5.38281H6.76562C7.26367 5.38281 7.70898 5.53516 8.10156 5.83984C8.5 6.14453 8.76074 6.53711 8.88379 7.01758L9.54297 9.71582C9.58984 9.91504 9.58105 10.1055 9.5166 10.2871C9.45801 10.4629 9.34375 10.6064 9.17383 10.7178C9.37305 10.958 9.58984 11.1602 9.82422 11.3242L13.208 13.6797L19.0703 16.835ZM2.55566 9.21484L3.74219 11.2803H4.32227L5.24512 10.7529L4.05859 7.70312L2.55566 9.21484Z" fill="#EE5916"/>
</svg>
