<svg width="17" height="17" viewBox="0 0 17 17" fill="none" xmlns="http://www.w3.org/2000/svg">
<path d="M16.7002 7.81934H0.291016V9.51562H16.7002V7.81934ZM0.291016 3.3457C0.291016 2.39648 0.53125 1.67871 1.01172 1.19238C1.49805 0.706055 2.20996 0.462891 3.14746 0.462891H13.8438C14.7871 0.462891 15.499 0.706055 15.9795 1.19238C16.46 1.67871 16.7002 2.39648 16.7002 3.3457V13.9893C16.7002 14.9385 16.46 15.6562 15.9795 16.1426C15.499 16.6289 14.7871 16.8721 13.8438 16.8721H3.14746C2.20996 16.8721 1.49805 16.6289 1.01172 16.1426C0.53125 15.6562 0.291016 14.9385 0.291016 13.9893V3.3457Z" fill="#AEAEAE"/>
</svg>
